<?xml version="1.0" encoding="utf-8"?>
<!-- Generator: Adobe Illustrator 16.0.0, SVG Export Plug-In . SVG Version: 6.00 Build 0)  -->
<!DOCTYPE svg PUBLIC "-//W3C//DTD SVG 1.1//EN" "http://www.w3.org/Graphics/SVG/1.1/DTD/svg11.dtd">
<svg version="1.1"
	 id="svg2" xmlns:inkscape="http://www.inkscape.org/namespaces/inkscape" xmlns:sodipodi="http://sodipodi.sourceforge.net/DTD/sodipodi-0.dtd" xmlns:svg="http://www.w3.org/2000/svg" xmlns:rdf="http://www.w3.org/1999/02/22-rdf-syntax-ns#" xmlns:cc="http://creativecommons.org/ns#" xmlns:dc="http://purl.org/dc/elements/1.1/" sodipodi:docname="HSCirkel.svg" inkscape:version="0.48.0 r9654"
	 xmlns="http://www.w3.org/2000/svg" xmlns:xlink="http://www.w3.org/1999/xlink" x="0px" y="0px" width="114px" height="98.667px"
	 viewBox="-42.333 0 114 98.667" enable-background="new -42.333 0 114 98.667" xml:space="preserve">
<sodipodi:namedview  inkscape:zoom="0.84294872" borderopacity="1" inkscape:cx="-58.087689" bordercolor="#666666" inkscape:cy="158.53828" showgrid="false" gridtolerance="10" pagecolor="#ffffff" guidetolerance="10" objecttolerance="10" id="namedview8" inkscape:pageshadow="2" inkscape:window-width="1280" inkscape:pageopacity="0" inkscape:window-y="-4" inkscape:window-maximized="1" inkscape:window-height="744" inkscape:window-x="-4" inkscape:current-layer="text2993">
	</sodipodi:namedview>
<g id="text2993" transform="scale(1.0415964,0.96006477)">
	<g id="g3812" transform="matrix(1.0709299,0,0,1.054725,-5.336818,-5.7494119)">
		
			<path id="path3770" inkscape:connector-curvature="0" sodipodi:nodetypes="ccccccccc" fill="#FF5529" stroke="#B60000" stroke-width="1.45" d="
			M19.471,72.671h-3.575L7.617,20.956C7.179,18.49,6.96,16.834,6.96,15.983c0-2.381,0.972-4.453,2.916-6.218
			c1.944-1.764,4.578-2.646,7.902-2.646c7.086,0,10.628,3.167,10.628,9.501c0,1.318-0.124,2.763-0.376,4.336L19.471,72.671z"/>
		
			<path id="path3770-0" inkscape:connector-curvature="0" sodipodi:nodetypes="scccsccss" fill="#FF5529" stroke="#B60000" stroke-width="1.45" d="
			M18.065,79.32c2.711,0,5.062,1.051,7.049,3.157c1.988,2.104,2.984,4.636,2.984,7.597c0,3.09-0.965,5.721-2.893,7.894
			c-1.928,2.17-4.308,3.254-7.139,3.254c-2.833,0-5.213-1.084-7.14-3.254c-1.93-2.173-2.893-4.804-2.893-7.894
			c0-2.961,0.993-5.49,2.982-7.597C13.003,80.372,15.353,79.32,18.065,79.32z"/>
	</g>
</g>
</svg>
